{
	"asset":{
		"generator":"Khronos glTF Blender I/O v4.2.70",
		"version":"2.0"
	},
	"scene":0,
	"scenes":[
		{
			"name":"Scene",
			"nodes":[
				0
			]
		}
	],
	"nodes":[
		{
			"mesh":0,
			"name":"Server_Body_low",
			"rotation":[
				0,
				0.99787837266922,
				0,
				0.0651058778166771
			]
		}
	],
	"meshes":[
		{
			"name":"Server_Body_low.001",
			"primitives":[
				{
					"attributes":{
						"POSITION":0,
						"NORMAL":1,
						"TEXCOORD_0":2
					},
					"indices":3
				}
			]
		}
	],
	"accessors":[
		{
			"bufferView":0,
			"componentType":5126,
			"count":2696,
			"max":[
				0.11043954640626907,
				0.22272160649299622,
				0.2913557291030884
			],
			"min":[
				-0.11043954640626907,
				-0.23265278339385986,
				-0.26800647377967834
			],
			"type":"VEC3"
		},
		{
			"bufferView":1,
			"componentType":5126,
			"count":2696,
			"type":"VEC3"
		},
		{
			"bufferView":2,
			"componentType":5126,
			"count":2696,
			"type":"VEC2"
		},
		{
			"bufferView":3,
			"componentType":5123,
			"count":6663,
			"type":"SCALAR"
		}
	],
	"bufferViews":[
		{
			"buffer":0,
			"byteLength":32352,
			"byteOffset":0,
			"target":34962
		},
		{
			"buffer":0,
			"byteLength":32352,
			"byteOffset":32352,
			"target":34962
		},
		{
			"buffer":0,
			"byteLength":21568,
			"byteOffset":64704,
			"target":34962
		},
		{
			"buffer":0,
			"byteLength":13326,
			"byteOffset":86272,
			"target":34963
		}
	],
	"buffers":[
		{
			"byteLength":99600,
			"uri":"HP_Z8.bin"
		}
	]
}
